<svg id="global" enable-background="new 0 0 512.433 512.433" height="32" viewBox="0 0 512.433 512.433" width="32" xmlns="http://www.w3.org/2000/svg"><g><path d="m75.618 396.559c1.459 0 2.934-.425 4.229-1.311 3.418-2.339 4.293-7.007 1.954-10.425-17.112-25.004-28.476-53.064-33.61-82.573h18.203c19.758 0 36.255-14.23 39.783-32.979h28.219c4.142 0 7.5-3.358 7.5-7.5s-3.358-7.5-7.5-7.5h-35.022c-4.142 0-7.5 3.358-7.5 7.5 0 14.049-11.43 25.479-25.479 25.479h-20.26c-.716-7.097-1.086-14.259-1.086-21.467 0-30.883 6.517-60.64 19.37-88.445 1.738-3.76.099-8.217-3.661-9.955-3.761-1.737-8.217-.099-9.955 3.661-13.771 29.792-20.753 61.667-20.753 94.739 0 45.781 13.615 89.874 39.373 127.512 1.452 2.123 3.803 3.264 6.195 3.264z"/><path d="m348.895 455.379c-29.014 14.23-60.238 21.446-92.804 21.446-25.658 0-50.726-4.551-74.508-13.527-3.877-1.464-8.203.494-9.665 4.368-1.463 3.875.493 8.203 4.368 9.665 25.48 9.617 52.331 14.494 79.805 14.494 34.875 0 68.322-7.731 99.41-22.978 3.719-1.824 5.255-6.317 3.431-10.037-1.825-3.719-6.319-5.255-10.037-3.431z"/><path d="m174.672 70.414c.931 0 1.877-.174 2.793-.542 24.993-10.04 51.446-15.13 78.625-15.13 13.932 0 27.896 1.376 41.506 4.09 4.061.814 8.012-1.826 8.822-5.888s-1.826-8.012-5.888-8.822c-14.573-2.906-29.525-4.38-44.439-4.38-29.104 0-57.438 5.454-84.217 16.211-3.843 1.544-5.708 5.912-4.164 9.755 1.176 2.927 3.99 4.706 6.962 4.706z"/><path d="m283.243 240.62c0-15.798-12.852-28.65-28.65-28.65h-47.143c-6.143 0-11.141-4.998-11.141-11.141s4.998-11.141 11.141-11.141h15.956c19.948 0 36.178-16.229 36.178-36.178 0-19.948-16.229-36.178-36.178-36.178h-42.142c-4.142 0-7.5 3.358-7.5 7.5s3.358 7.5 7.5 7.5h42.142c11.677 0 21.178 9.5 21.178 21.178s-9.5 21.178-21.178 21.178h-15.956c-14.414 0-26.141 11.727-26.141 26.141s11.727 26.141 26.141 26.141h47.143c7.526 0 13.65 6.124 13.65 13.65s-6.124 13.65-13.65 13.65h-88.234c-4.142 0-7.5 3.358-7.5 7.5s3.358 7.5 7.5 7.5h88.234c15.798 0 28.65-12.852 28.65-28.65z"/><path d="m370.764 378.004c0-8.16-6.639-14.799-14.799-14.799h-88.881c-6.463 0-11.721-5.258-11.721-11.722s5.258-11.722 11.721-11.722h186.707c-1.026 2.738-2.097 5.463-3.24 8.166-1.613 3.815.171 8.216 3.986 9.83.954.403 1.944.594 2.918.594 2.922 0 5.701-1.719 6.911-4.58 11.789-27.872 17.767-57.476 17.767-87.988 0-47.502-14.571-92.958-42.139-131.453-26.973-37.664-64.18-65.801-107.599-81.371-3.901-1.397-8.193.63-9.592 4.528-1.398 3.899.629 8.193 4.528 9.592 17.304 6.205 33.547 14.556 48.447 24.818h-13.182c-16.877 0-30.608 13.731-30.608 30.608s13.731 30.608 30.608 30.608h7.98c4.686 0 8.498 3.812 8.498 8.498s-3.812 8.499-8.498 8.499h-24.688c-16.551 0-30.016 13.465-30.016 30.016s13.465 30.016 30.016 30.016h45.64c4.142 0 7.5-3.358 7.5-7.5s-3.358-7.5-7.5-7.5h-45.64c-8.28 0-15.016-6.736-15.016-15.016s6.736-15.016 15.016-15.016h24.688c12.957 0 23.498-10.542 23.498-23.499s-10.541-23.498-23.498-23.498h-7.98c-8.606 0-15.608-7.002-15.608-15.608s7.002-15.608 15.608-15.608h32.456c12.162 10.66 23.149 22.765 32.746 36.166 15.718 21.948 26.9 46.324 33.231 72.079h-37.539c-4.142 0-7.5 3.358-7.5 7.5s3.358 7.5 7.5 7.5h40.651c1.98 11.678 2.992 23.587 2.992 35.64 0 20.181-2.813 39.929-8.355 58.979h-191.694c-14.734 0-26.721 11.987-26.721 26.722s11.987 26.722 26.721 26.722h88.683c.106 4.049 3.422 7.299 7.498 7.299 4.141 0 7.499-3.358 7.499-7.5z"/><path d="m141.688 324.761c-14.734 0-26.721 11.987-26.721 26.722s11.987 26.722 26.721 26.722h30.236c14.734 0 26.722-11.987 26.722-26.722s-11.987-26.722-26.722-26.722zm41.958 26.722c0 6.463-5.258 11.722-11.722 11.722h-30.236c-6.463 0-11.721-5.258-11.721-11.722s5.258-11.722 11.721-11.722h30.236c6.464 0 11.722 5.259 11.722 11.722z"/><path d="m33.394 167.891-.104-.104 16.622-16.622c10.326 8.352 23.032 13.868 36.932 15.339v11.934c0 4.142 3.358 7.5 7.5 7.5s7.5-3.358 7.5-7.5v-11.934c13.9-1.471 26.607-6.987 36.932-15.339l6.3 6.3c1.464 1.464 3.384 2.197 5.303 2.197s3.839-.732 5.303-2.197c2.929-2.929 2.929-7.678 0-10.606l-6.3-6.3c8.352-10.325 13.867-23.032 15.339-36.932h9.951c4.142 0 7.5-3.358 7.5-7.5s-3.358-7.5-7.5-7.5h-9.951c-1.471-13.901-6.987-26.607-15.339-36.932l11.405-11.405c2.929-2.929 2.929-7.678 0-10.606-2.929-2.929-7.678-2.929-10.606 0l-11.405 11.405c-10.325-8.352-23.031-13.867-36.932-15.339v-9.934c0-4.142-3.358-7.5-7.5-7.5s-7.5 3.358-7.5 7.5v9.934c-13.901 1.471-26.607 6.987-36.932 15.339l-10.008-10.009c-2.929-2.93-7.678-2.929-10.606 0-2.929 2.929-2.929 7.677 0 10.606l10.007 10.008c-8.352 10.326-13.868 23.032-15.339 36.932h-9.166c-.77-3.323-3.742-5.802-7.3-5.802-4.142 0-7.5 3.358-7.5 7.5v10.974c0 4.142 3.358 7.5 7.5 7.5 3.329 0 6.147-2.171 7.127-5.172h9.339c1.471 13.9 6.987 26.606 15.339 36.932l-16.623 16.623c-2.931-2.905-7.66-2.897-10.581.023-2.929 2.929-2.929 7.678 0 10.606l10.687 10.686c1.464 1.465 3.384 2.197 5.303 2.197s3.839-.732 5.303-2.197c2.929-2.928 2.929-7.677 0-10.605zm53.689-99.377c0 9.988-8.126 18.115-18.115 18.115s-18.115-8.126-18.115-18.115 8.126-18.115 18.115-18.115 18.115 8.126 18.115 18.115zm-47.229 15.719c5.601 10.347 16.543 17.395 29.114 17.395 18.26 0 33.115-14.855 33.115-33.115 0-11.566-5.966-21.758-14.976-27.681 2.371-.309 4.783-.485 7.237-.485 30.756 0 55.778 25.022 55.778 55.778s-25.022 55.778-55.778 55.778-55.778-25.022-55.778-55.778c-.001-4.081.452-8.057 1.288-11.892z"/><path d="m85.295 133.434h3.218c4.142 0 7.5-3.358 7.5-7.5s-3.358-7.5-7.5-7.5h-3.218c-4.142 0-7.5 3.358-7.5 7.5s3.358 7.5 7.5 7.5z"/><path d="m120.852 100.291h7.079c4.142 0 7.5-3.358 7.5-7.5s-3.358-7.5-7.5-7.5h-7.079c-4.142 0-7.5 3.358-7.5 7.5s3.358 7.5 7.5 7.5z"/><path d="m512.154 410.842c-1.116-3.989-5.252-6.315-9.243-5.203l-12.79 3.576c-1.979-4.649-4.535-8.981-7.622-12.897l4.351-5.782c2.49-3.31 1.826-8.012-1.484-10.502-3.31-2.491-8.012-1.825-10.502 1.484l-3.236 4.3c-1.9-1.402-3.886-2.708-5.976-3.884-11.364-6.396-24.002-8.457-36.01-6.74l-3.016-10.785c-1.115-3.988-5.251-6.318-9.243-5.203-3.989 1.115-6.318 5.253-5.203 9.243l3.016 10.785c-8.98 3.833-17.029 9.978-23.167 18.155l-9.172-5.163c-3.608-2.032-8.182-.753-10.215 2.856-2.032 3.609-.753 8.183 2.856 10.215l9.165 5.16c-3.744 9.294-4.953 19.318-3.526 29.236l-9.266 2.591c-3.989 1.115-6.318 5.253-5.203 9.243.926 3.313 3.938 5.482 7.219 5.482.668 0 11.289-2.87 11.289-2.87 3.882 9.121 10.023 16.995 17.921 22.976l-4.24 6.802c-2.994-.456-6.092.933-7.667 3.728-2.032 3.609-.753 8.183 2.856 10.215l7.493 4.218c1.163.655 2.426.966 3.672.966 2.621 0 5.165-1.376 6.542-3.822 1.362-2.42 1.23-5.269-.088-7.499l4.469-7.17c6.949 2.833 14.217 4.198 21.415 4.198 2.719 0 5.427-.201 8.105-.584l2.928 10.471c.927 3.313 3.939 5.482 7.219 5.482.668 0 1.348-.09 2.024-.279 3.989-1.116 6.318-5.254 5.203-9.243l-2.928-10.471c8.981-3.833 17.039-9.975 23.177-18.154l6.892 3.88c1.164.655 2.426.966 3.672.966 2.621 0 5.166-1.376 6.542-3.822 2.032-3.61.753-8.183-2.856-10.215l-6.896-3.882c3.744-9.294 4.953-19.318 3.526-29.236l12.79-3.576c3.993-1.119 6.323-5.257 5.207-9.246zm-95.148 57.506c-9.795-5.514-16.857-14.513-19.884-25.338-3.027-10.826-1.658-22.182 3.856-31.977 7.719-13.713 22.025-21.432 36.743-21.432 6.984 0 14.064 1.74 20.572 5.403 9.795 5.514 16.857 14.513 19.884 25.338s1.658 22.182-3.856 31.977c-11.383 20.223-37.095 27.413-57.315 16.029z"/><path d="m438.097 415.593c0-4.142-3.358-7.5-7.5-7.5h-4.494c-4.142 0-7.5 3.358-7.5 7.5s3.358 7.5 7.5 7.5h4.494c4.142 0 7.5-3.358 7.5-7.5z"/><path d="m448.573 437.53h-5.243c-4.142 0-7.5 3.358-7.5 7.5s3.358 7.5 7.5 7.5h5.243c4.142 0 7.5-3.358 7.5-7.5s-3.358-7.5-7.5-7.5z"/><path d="m159.917 427.69-7.126 1.993c-2.64-5.48-6.413-10.289-11.108-14.155l3.281-5.829c.864.329 1.761.495 2.651.495 2.621 0 5.166-1.376 6.542-3.822 2.032-3.609.753-8.183-2.856-10.215l-11.206-6.308c-3.609-2.031-8.183-.753-10.215 2.856-1.862 3.307-.938 7.417 2.005 9.647l-3.275 5.817c-5.741-2.009-11.81-2.741-17.864-2.155l-1.594-5.7c-1.115-3.989-5.254-6.319-9.243-5.203-3.989 1.115-6.318 5.253-5.203 9.243l1.594 5.7c-5.48 2.64-10.289 6.413-14.155 11.108l-4.759-2.679c-3.609-2.031-8.183-.753-10.215 2.856s-.753 8.183 2.856 10.215l4.759 2.679c-2.008 5.741-2.74 11.81-2.154 17.864l-4.654 1.302c-3.989 1.115-6.318 5.253-5.203 9.243.927 3.313 3.938 5.482 7.219 5.482.668 0 1.349-.09 2.024-.279l4.654-1.301c2.594 5.385 6.282 10.125 10.864 13.957l-4.4 7.059c-2.191 3.515-1.118 8.141 2.397 10.332 1.234.77 2.605 1.136 3.96 1.136 2.503 0 4.95-1.253 6.372-3.534l4.702-7.544c4.547 1.627 9.301 2.471 14.098 2.471 1.347 0 2.697-.089 4.046-.219l1.536 5.494c.927 3.314 3.939 5.482 7.219 5.482.668 0 1.348-.09 2.023-.279 3.989-1.116 6.319-5.254 5.204-9.243l-1.533-5.484c5.48-2.639 10.288-6.413 14.155-11.108l3.167 1.783c1.164.655 2.426.966 3.672.966 2.621 0 5.166-1.376 6.542-3.822 2.032-3.61.753-8.183-2.856-10.215l-3.168-1.783c2.008-5.741 2.74-11.81 2.154-17.864l7.127-1.993c3.989-1.115 6.318-5.253 5.203-9.243-1.112-3.989-5.251-6.319-9.239-5.203zm-37.836 46.703c-7.021 1.963-14.383 1.075-20.735-2.5s-10.931-9.411-12.894-16.43c-1.963-7.02-1.075-14.383 2.5-20.735s9.411-10.931 16.43-12.894c2.441-.683 4.923-1.021 7.391-1.021 4.627 0 9.202 1.189 13.344 3.521 6.352 3.576 10.931 9.411 12.894 16.43 1.963 7.02 1.075 14.383-2.5 20.735s-9.411 10.931-16.43 12.894z"/><path d="m117.284 436.829c0-4.142-3.358-7.5-7.5-7.5h-3.153c-4.142 0-7.5 3.358-7.5 7.5s3.358 7.5 7.5 7.5h3.153c4.142 0 7.5-3.358 7.5-7.5z"/><path d="m122.396 449.982h-3.679c-4.142 0-7.5 3.358-7.5 7.5s3.358 7.5 7.5 7.5h3.679c4.142 0 7.5-3.358 7.5-7.5s-3.358-7.5-7.5-7.5z"/></g></svg>